# xmcd
#
# Track frame offsets: 
#        182
#        52580
#        63217
#        74842
#        82002
#        88105
#        99515
#        113285
#        132627
#        148635
#        168370
#        189435
#        212800
#        233712
#        261422
#        283035
#        297732
#        317017
#
# Disc length: 4753 seconds
#
# Revision: 7
# Processed by: cddbd v1.5.2PL0 Copyright (c) Steve Scherf et al.
# Submitted via: ExactAudioCopyFreeDBPlugin 1.0
#
DISCID=12128f12
DTITLE=Itzhak Perlman  - The Spanish Album
DYEAR=1990
DGENRE=Classical
TTITLE0=Pablo de Sarasate - Carmen Fantasy, Op. 25
TTITLE1=Manuel de Falla - Suite populaire espagnole - I. El paño morun
TTITLE1=o
TTITLE2=Manuel de Falla - Suite populaire espagnole - II. Nana
TTITLE3=Manuel de Falla - Suite populaire espagnole - III. Canción
TTITLE4=Manuel de Falla - Suite populaire espagnole - IV. Polo
TTITLE5=Manuel de Falla - Suite populaire espagnole - V. Asturiana
TTITLE6=Manuel de Falla - Suite populaire espagnole - VI. Jota
TTITLE7=Enrique Granados - Spanish Dance
TTITLE8=Ernesto Halffter - Danza da la Gitana
TTITLE9=Pablo de Sarasate - Habanera, Op. 21 No. 2
TTITLE10=Pablo de Sarasate - Playera, Op. 23
TTITLE11=Pablo de Sarasate - Spanish Dance, Op. 26 No. 8
TTITLE12=Pablo de Sarasate - Malagueña, Op. 21 No. 1
TTITLE13=Pablo de Sarasate - Caprice Basque, Op. 24
TTITLE14=Pablo de Sarasate - Romanza andaluza, Op. 22
TTITLE15=Pablo de Sarasate - Zapateado, Op. 23
TTITLE16=Issac Albéniz - Malagueña, Op. 165 No. 3
TTITLE17=Pablo de Sarasate - Zigeunerweisen, Op. 20
EXTD=submitted by jleeherron@gulf.net
EXTT0=
EXTT1=
EXTT2=
EXTT3=
EXTT4=
EXTT5=
EXTT6=
EXTT7=
EXTT8=
EXTT9=
EXTT10=
EXTT11=
EXTT12=
EXTT13=
EXTT14=
EXTT15=
EXTT16=
EXTT17=
PLAYORDER=
